<mxfile host="65bd71144e">
    <diagram id="x-3COifYz2KylL2C0voI" name="第 1 页">
        <mxGraphModel dx="749" dy="273" grid="1" gridSize="10" guides="1" tooltips="1" connect="1" arrows="1" fold="1" page="1" pageScale="1" pageWidth="827" pageHeight="1169" math="0" shadow="0">
            <root>
                <mxCell id="0"/>
                <mxCell id="1" parent="0"/>
                <mxCell id="89" value="" style="group" vertex="1" connectable="0" parent="1">
                    <mxGeometry x="110" y="50" width="330" height="250" as="geometry"/>
                </mxCell>
                <mxCell id="90" value="" style="group" vertex="1" connectable="0" parent="89">
                    <mxGeometry width="101.19999999999999" height="45.29767040552198" as="geometry"/>
                </mxCell>
                <mxCell id="91" value="" style="rounded=0;whiteSpace=wrap;html=1;" vertex="1" parent="90">
                    <mxGeometry width="101.19999999999999" height="45.29767040552198" as="geometry"/>
                </mxCell>
                <mxCell id="92" value="info(介绍）" style="rounded=0;whiteSpace=wrap;html=1;" vertex="1" parent="90">
                    <mxGeometry x="14.457142857142859" y="5.782681328364508" width="28.914285714285718" height="5.782681328364508" as="geometry"/>
                </mxCell>
                <mxCell id="93" style="edgeStyle=none;html=1;exitX=1;exitY=0.5;exitDx=0;exitDy=0;" edge="1" parent="90" source="94">
                    <mxGeometry relative="1" as="geometry">
                        <mxPoint x="62.64761904761905" y="22.166945092063948" as="targetPoint"/>
                    </mxGeometry>
                </mxCell>
                <mxCell id="94" value="tag（输出选项）" style="rounded=0;whiteSpace=wrap;html=1;" vertex="1" parent="90">
                    <mxGeometry x="14.457142857142859" y="14.456703320911272" width="28.914285714285718" height="5.782681328364508" as="geometry"/>
                </mxCell>
                <mxCell id="95" style="edgeStyle=none;html=1;exitX=1;exitY=0.5;exitDx=0;exitDy=0;" edge="1" parent="90" source="96">
                    <mxGeometry relative="1" as="geometry">
                        <mxPoint x="62.64761904761905" y="22.166945092063948" as="targetPoint"/>
                    </mxGeometry>
                </mxCell>
                <mxCell id="96" value="menu_function" style="rounded=0;whiteSpace=wrap;html=1;" vertex="1" parent="90">
                    <mxGeometry x="14.457142857142859" y="23.130725313458033" width="28.914285714285718" height="5.782681328364508" as="geometry"/>
                </mxCell>
                <mxCell id="97" style="edgeStyle=none;html=1;exitX=1;exitY=0.5;exitDx=0;exitDy=0;" edge="1" parent="90" source="98">
                    <mxGeometry relative="1" as="geometry">
                        <mxPoint x="62.64761904761905" y="22.166945092063948" as="targetPoint"/>
                    </mxGeometry>
                </mxCell>
                <mxCell id="98" value="realize" style="rounded=0;whiteSpace=wrap;html=1;" vertex="1" parent="90">
                    <mxGeometry x="14.457142857142859" y="33.73230774879296" width="28.914285714285718" height="5.782681328364508" as="geometry"/>
                </mxCell>
                <mxCell id="99" value="worker" style="rounded=0;whiteSpace=wrap;html=1;" vertex="1" parent="90">
                    <mxGeometry x="63.611428571428576" y="19.2756044278817" width="28.914285714285718" height="5.782681328364508" as="geometry"/>
                </mxCell>
                <mxCell id="100" style="edgeStyle=none;html=1;entryX=0;entryY=0.5;entryDx=0;entryDy=0;" edge="1" parent="90" source="92" target="99">
                    <mxGeometry relative="1" as="geometry"/>
                </mxCell>
                <mxCell id="101" value="" style="group" vertex="1" connectable="0" parent="89">
                    <mxGeometry x="4.4" y="49.61173425366696" width="96.80000000000001" height="45.29767040552198" as="geometry"/>
                </mxCell>
                <mxCell id="102" value="" style="rounded=0;whiteSpace=wrap;html=1;" vertex="1" parent="101">
                    <mxGeometry width="96.80000000000001" height="45.29767040552198" as="geometry"/>
                </mxCell>
                <mxCell id="103" value="info(介绍）" style="rounded=0;whiteSpace=wrap;html=1;" vertex="1" parent="101">
                    <mxGeometry x="13.828571428571433" y="5.782681328364508" width="27.657142857142865" height="5.782681328364508" as="geometry"/>
                </mxCell>
                <mxCell id="104" style="edgeStyle=none;html=1;exitX=1;exitY=0.5;exitDx=0;exitDy=0;" edge="1" parent="101" source="105">
                    <mxGeometry relative="1" as="geometry">
                        <mxPoint x="59.923809523809524" y="22.166945092063948" as="targetPoint"/>
                    </mxGeometry>
                </mxCell>
                <mxCell id="105" value="tag（输出选项）" style="rounded=0;whiteSpace=wrap;html=1;" vertex="1" parent="101">
                    <mxGeometry x="13.828571428571433" y="14.456703320911272" width="27.657142857142865" height="5.782681328364508" as="geometry"/>
                </mxCell>
                <mxCell id="106" style="edgeStyle=none;html=1;exitX=1;exitY=0.5;exitDx=0;exitDy=0;" edge="1" parent="101" source="107">
                    <mxGeometry relative="1" as="geometry">
                        <mxPoint x="59.923809523809524" y="22.166945092063948" as="targetPoint"/>
                    </mxGeometry>
                </mxCell>
                <mxCell id="107" value="menu_function" style="rounded=0;whiteSpace=wrap;html=1;" vertex="1" parent="101">
                    <mxGeometry x="13.828571428571433" y="23.130725313458033" width="27.657142857142865" height="5.782681328364508" as="geometry"/>
                </mxCell>
                <mxCell id="108" style="edgeStyle=none;html=1;exitX=1;exitY=0.5;exitDx=0;exitDy=0;" edge="1" parent="101" source="109">
                    <mxGeometry relative="1" as="geometry">
                        <mxPoint x="59.923809523809524" y="22.166945092063948" as="targetPoint"/>
                    </mxGeometry>
                </mxCell>
                <mxCell id="109" value="realize" style="rounded=0;whiteSpace=wrap;html=1;" vertex="1" parent="101">
                    <mxGeometry x="13.828571428571433" y="33.73230774879296" width="27.657142857142865" height="5.782681328364508" as="geometry"/>
                </mxCell>
                <mxCell id="110" value="worker" style="rounded=0;whiteSpace=wrap;html=1;" vertex="1" parent="101">
                    <mxGeometry x="60.845714285714294" y="19.2756044278817" width="27.657142857142865" height="5.782681328364508" as="geometry"/>
                </mxCell>
                <mxCell id="111" style="edgeStyle=none;html=1;entryX=0;entryY=0.5;entryDx=0;entryDy=0;" edge="1" parent="101" source="103" target="110">
                    <mxGeometry relative="1" as="geometry"/>
                </mxCell>
                <mxCell id="112" value="" style="group" vertex="1" connectable="0" parent="89">
                    <mxGeometry x="4.4" y="204.70232959447796" width="101.19999999999999" height="45.29767040552198" as="geometry"/>
                </mxCell>
                <mxCell id="113" value="" style="rounded=0;whiteSpace=wrap;html=1;" vertex="1" parent="112">
                    <mxGeometry width="101.19999999999999" height="45.29767040552198" as="geometry"/>
                </mxCell>
                <mxCell id="114" value="info(介绍）" style="rounded=0;whiteSpace=wrap;html=1;" vertex="1" parent="112">
                    <mxGeometry x="14.457142857142859" y="5.782681328364508" width="28.914285714285718" height="5.782681328364508" as="geometry"/>
                </mxCell>
                <mxCell id="115" style="edgeStyle=none;html=1;exitX=1;exitY=0.5;exitDx=0;exitDy=0;" edge="1" parent="112" source="116">
                    <mxGeometry relative="1" as="geometry">
                        <mxPoint x="62.64761904761905" y="22.166945092063948" as="targetPoint"/>
                    </mxGeometry>
                </mxCell>
                <mxCell id="116" value="tag（输出选项）" style="rounded=0;whiteSpace=wrap;html=1;" vertex="1" parent="112">
                    <mxGeometry x="14.457142857142859" y="14.456703320911272" width="28.914285714285718" height="5.782681328364508" as="geometry"/>
                </mxCell>
                <mxCell id="117" style="edgeStyle=none;html=1;exitX=1;exitY=0.5;exitDx=0;exitDy=0;" edge="1" parent="112" source="118">
                    <mxGeometry relative="1" as="geometry">
                        <mxPoint x="62.64761904761905" y="22.166945092063948" as="targetPoint"/>
                    </mxGeometry>
                </mxCell>
                <mxCell id="118" value="menu_function" style="rounded=0;whiteSpace=wrap;html=1;" vertex="1" parent="112">
                    <mxGeometry x="14.457142857142859" y="23.130725313458033" width="28.914285714285718" height="5.782681328364508" as="geometry"/>
                </mxCell>
                <mxCell id="119" style="edgeStyle=none;html=1;exitX=1;exitY=0.5;exitDx=0;exitDy=0;" edge="1" parent="112" source="120">
                    <mxGeometry relative="1" as="geometry">
                        <mxPoint x="62.64761904761905" y="22.166945092063948" as="targetPoint"/>
                    </mxGeometry>
                </mxCell>
                <mxCell id="120" value="realize" style="rounded=0;whiteSpace=wrap;html=1;" vertex="1" parent="112">
                    <mxGeometry x="14.457142857142859" y="33.73230774879296" width="28.914285714285718" height="5.782681328364508" as="geometry"/>
                </mxCell>
                <mxCell id="121" value="worker" style="rounded=0;whiteSpace=wrap;html=1;" vertex="1" parent="112">
                    <mxGeometry x="63.611428571428576" y="19.2756044278817" width="28.914285714285718" height="5.782681328364508" as="geometry"/>
                </mxCell>
                <mxCell id="122" style="edgeStyle=none;html=1;entryX=0;entryY=0.5;entryDx=0;entryDy=0;" edge="1" parent="112" source="114" target="121">
                    <mxGeometry relative="1" as="geometry"/>
                </mxCell>
                <mxCell id="123" value="" style="group" vertex="1" connectable="0" parent="89">
                    <mxGeometry x="4.4" y="150.9922346850733" width="101.19999999999999" height="45.29767040552198" as="geometry"/>
                </mxCell>
                <mxCell id="124" value="" style="rounded=0;whiteSpace=wrap;html=1;" vertex="1" parent="123">
                    <mxGeometry width="101.19999999999999" height="45.29767040552198" as="geometry"/>
                </mxCell>
                <mxCell id="125" value="info(介绍）" style="rounded=0;whiteSpace=wrap;html=1;" vertex="1" parent="123">
                    <mxGeometry x="14.457142857142859" y="5.782681328364508" width="28.914285714285718" height="5.782681328364508" as="geometry"/>
                </mxCell>
                <mxCell id="126" style="edgeStyle=none;html=1;exitX=1;exitY=0.5;exitDx=0;exitDy=0;" edge="1" parent="123" source="127">
                    <mxGeometry relative="1" as="geometry">
                        <mxPoint x="62.64761904761905" y="22.166945092063948" as="targetPoint"/>
                    </mxGeometry>
                </mxCell>
                <mxCell id="127" value="tag（输出选项）" style="rounded=0;whiteSpace=wrap;html=1;" vertex="1" parent="123">
                    <mxGeometry x="14.457142857142859" y="14.456703320911272" width="28.914285714285718" height="5.782681328364508" as="geometry"/>
                </mxCell>
                <mxCell id="128" style="edgeStyle=none;html=1;exitX=1;exitY=0.5;exitDx=0;exitDy=0;" edge="1" parent="123" source="129">
                    <mxGeometry relative="1" as="geometry">
                        <mxPoint x="62.64761904761905" y="22.166945092063948" as="targetPoint"/>
                    </mxGeometry>
                </mxCell>
                <mxCell id="129" value="menu_function" style="rounded=0;whiteSpace=wrap;html=1;" vertex="1" parent="123">
                    <mxGeometry x="14.457142857142859" y="23.130725313458033" width="28.914285714285718" height="5.782681328364508" as="geometry"/>
                </mxCell>
                <mxCell id="130" style="edgeStyle=none;html=1;exitX=1;exitY=0.5;exitDx=0;exitDy=0;" edge="1" parent="123" source="131">
                    <mxGeometry relative="1" as="geometry">
                        <mxPoint x="62.64761904761905" y="22.166945092063948" as="targetPoint"/>
                    </mxGeometry>
                </mxCell>
                <mxCell id="131" value="realize" style="rounded=0;whiteSpace=wrap;html=1;" vertex="1" parent="123">
                    <mxGeometry x="14.457142857142859" y="33.73230774879296" width="28.914285714285718" height="5.782681328364508" as="geometry"/>
                </mxCell>
                <mxCell id="132" value="worker" style="rounded=0;whiteSpace=wrap;html=1;" vertex="1" parent="123">
                    <mxGeometry x="63.611428571428576" y="19.2756044278817" width="28.914285714285718" height="5.782681328364508" as="geometry"/>
                </mxCell>
                <mxCell id="133" style="edgeStyle=none;html=1;entryX=0;entryY=0.5;entryDx=0;entryDy=0;" edge="1" parent="123" source="125" target="132">
                    <mxGeometry relative="1" as="geometry"/>
                </mxCell>
                <mxCell id="134" value="" style="group" vertex="1" connectable="0" parent="89">
                    <mxGeometry x="4.4" y="99.22346850733392" width="101.19999999999999" height="45.29767040552198" as="geometry"/>
                </mxCell>
                <mxCell id="135" value="" style="rounded=0;whiteSpace=wrap;html=1;" vertex="1" parent="134">
                    <mxGeometry width="101.19999999999999" height="45.29767040552198" as="geometry"/>
                </mxCell>
                <mxCell id="136" value="info(介绍）" style="rounded=0;whiteSpace=wrap;html=1;" vertex="1" parent="134">
                    <mxGeometry x="14.457142857142859" y="5.782681328364508" width="28.914285714285718" height="5.782681328364508" as="geometry"/>
                </mxCell>
                <mxCell id="137" style="edgeStyle=none;html=1;exitX=1;exitY=0.5;exitDx=0;exitDy=0;" edge="1" parent="134" source="138">
                    <mxGeometry relative="1" as="geometry">
                        <mxPoint x="62.64761904761905" y="22.166945092063948" as="targetPoint"/>
                    </mxGeometry>
                </mxCell>
                <mxCell id="138" value="tag（输出选项）" style="rounded=0;whiteSpace=wrap;html=1;" vertex="1" parent="134">
                    <mxGeometry x="14.457142857142859" y="14.456703320911272" width="28.914285714285718" height="5.782681328364508" as="geometry"/>
                </mxCell>
                <mxCell id="139" style="edgeStyle=none;html=1;exitX=1;exitY=0.5;exitDx=0;exitDy=0;" edge="1" parent="134" source="140">
                    <mxGeometry relative="1" as="geometry">
                        <mxPoint x="62.64761904761905" y="22.166945092063948" as="targetPoint"/>
                    </mxGeometry>
                </mxCell>
                <mxCell id="140" value="menu_function" style="rounded=0;whiteSpace=wrap;html=1;" vertex="1" parent="134">
                    <mxGeometry x="14.457142857142859" y="23.130725313458033" width="28.914285714285718" height="5.782681328364508" as="geometry"/>
                </mxCell>
                <mxCell id="141" style="edgeStyle=none;html=1;exitX=1;exitY=0.5;exitDx=0;exitDy=0;" edge="1" parent="134" source="142">
                    <mxGeometry relative="1" as="geometry">
                        <mxPoint x="62.64761904761905" y="22.166945092063948" as="targetPoint"/>
                    </mxGeometry>
                </mxCell>
                <mxCell id="142" value="realize" style="rounded=0;whiteSpace=wrap;html=1;" vertex="1" parent="134">
                    <mxGeometry x="14.457142857142859" y="33.73230774879296" width="28.914285714285718" height="5.782681328364508" as="geometry"/>
                </mxCell>
                <mxCell id="143" value="worker" style="rounded=0;whiteSpace=wrap;html=1;" vertex="1" parent="134">
                    <mxGeometry x="63.611428571428576" y="19.2756044278817" width="28.914285714285718" height="5.782681328364508" as="geometry"/>
                </mxCell>
                <mxCell id="144" style="edgeStyle=none;html=1;entryX=0;entryY=0.5;entryDx=0;entryDy=0;" edge="1" parent="134" source="136" target="143">
                    <mxGeometry relative="1" as="geometry"/>
                </mxCell>
                <mxCell id="145" style="edgeStyle=none;html=1;exitX=1;exitY=0.5;exitDx=0;exitDy=0;" edge="1" parent="89" source="91" target="150">
                    <mxGeometry relative="1" as="geometry">
                        <mxPoint x="237.60000000000002" y="99.22346850733392" as="targetPoint"/>
                    </mxGeometry>
                </mxCell>
                <mxCell id="146" style="edgeStyle=none;html=1;entryX=0;entryY=0.5;entryDx=0;entryDy=0;" edge="1" parent="89" source="102" target="150">
                    <mxGeometry relative="1" as="geometry">
                        <mxPoint x="237.60000000000002" y="99.22346850733392" as="targetPoint"/>
                    </mxGeometry>
                </mxCell>
                <mxCell id="147" style="edgeStyle=none;html=1;entryX=-0.005;entryY=0.59;entryDx=0;entryDy=0;entryPerimeter=0;" edge="1" parent="89" source="135" target="150">
                    <mxGeometry relative="1" as="geometry">
                        <mxPoint x="237.60000000000002" y="99.22346850733392" as="targetPoint"/>
                    </mxGeometry>
                </mxCell>
                <mxCell id="148" style="edgeStyle=none;html=1;entryX=-0.009;entryY=0.674;entryDx=0;entryDy=0;entryPerimeter=0;" edge="1" parent="89" source="124" target="150">
                    <mxGeometry relative="1" as="geometry">
                        <mxPoint x="233.2" y="99.22346850733392" as="targetPoint"/>
                    </mxGeometry>
                </mxCell>
                <mxCell id="149" style="edgeStyle=none;html=1;" edge="1" parent="89" source="113" target="150">
                    <mxGeometry relative="1" as="geometry">
                        <mxPoint x="233.2" y="99.22346850733392" as="targetPoint"/>
                    </mxGeometry>
                </mxCell>
                <mxCell id="150" value="" style="rounded=0;whiteSpace=wrap;html=1;" vertex="1" parent="89">
                    <mxGeometry x="233.2" y="21.57031924072476" width="96.80000000000001" height="140.20707506471095" as="geometry"/>
                </mxCell>
                <mxCell id="151" value="" style="rounded=0;whiteSpace=wrap;html=1;" vertex="1" parent="89">
                    <mxGeometry x="259.59999999999997" y="59.74978429680757" width="52.8" height="12.94219154443486" as="geometry"/>
                </mxCell>
                <mxCell id="152" value="" style="rounded=0;whiteSpace=wrap;html=1;" vertex="1" parent="89">
                    <mxGeometry x="259.59999999999997" y="72.69197584124245" width="52.8" height="12.94219154443486" as="geometry"/>
                </mxCell>
                <mxCell id="153" value="" style="rounded=0;whiteSpace=wrap;html=1;" vertex="1" parent="89">
                    <mxGeometry x="259.59999999999997" y="86.28127696289904" width="52.8" height="12.94219154443486" as="geometry"/>
                </mxCell>
                <mxCell id="154" value="" style="rounded=0;whiteSpace=wrap;html=1;" vertex="1" parent="89">
                    <mxGeometry x="259.59999999999997" y="99.22346850733392" width="52.8" height="12.94219154443486" as="geometry"/>
                </mxCell>
                <mxCell id="155" value="" style="rounded=0;whiteSpace=wrap;html=1;" vertex="1" parent="89">
                    <mxGeometry x="259.59999999999997" y="112.16566005176875" width="52.8" height="12.94219154443486" as="geometry"/>
                </mxCell>
                <mxCell id="156" value="" style="group" vertex="1" connectable="0" parent="89">
                    <mxGeometry x="145.20000000000002" y="194.1328731665228" width="101.19999999999999" height="45.29767040552198" as="geometry"/>
                </mxCell>
                <mxCell id="157" value="" style="rounded=0;whiteSpace=wrap;html=1;" vertex="1" parent="156">
                    <mxGeometry width="101.19999999999999" height="45.29767040552198" as="geometry"/>
                </mxCell>
                <mxCell id="158" value="info(介绍）" style="rounded=0;whiteSpace=wrap;html=1;" vertex="1" parent="156">
                    <mxGeometry x="14.457142857142859" y="5.782681328364508" width="28.914285714285718" height="5.782681328364508" as="geometry"/>
                </mxCell>
                <mxCell id="159" style="edgeStyle=none;html=1;exitX=1;exitY=0.5;exitDx=0;exitDy=0;" edge="1" parent="156" source="160">
                    <mxGeometry relative="1" as="geometry">
                        <mxPoint x="62.64761904761905" y="22.166945092063948" as="targetPoint"/>
                    </mxGeometry>
                </mxCell>
                <mxCell id="160" value="tag（输出选项）" style="rounded=0;whiteSpace=wrap;html=1;" vertex="1" parent="156">
                    <mxGeometry x="14.457142857142859" y="14.456703320911272" width="28.914285714285718" height="5.782681328364508" as="geometry"/>
                </mxCell>
                <mxCell id="161" style="edgeStyle=none;html=1;exitX=1;exitY=0.5;exitDx=0;exitDy=0;" edge="1" parent="156" source="162">
                    <mxGeometry relative="1" as="geometry">
                        <mxPoint x="62.64761904761905" y="22.166945092063948" as="targetPoint"/>
                    </mxGeometry>
                </mxCell>
                <mxCell id="162" value="menu_function" style="rounded=0;whiteSpace=wrap;html=1;" vertex="1" parent="156">
                    <mxGeometry x="14.457142857142859" y="23.130725313458033" width="28.914285714285718" height="5.782681328364508" as="geometry"/>
                </mxCell>
                <mxCell id="163" style="edgeStyle=none;html=1;exitX=1;exitY=0.5;exitDx=0;exitDy=0;" edge="1" parent="156" source="164">
                    <mxGeometry relative="1" as="geometry">
                        <mxPoint x="62.64761904761905" y="22.166945092063948" as="targetPoint"/>
                    </mxGeometry>
                </mxCell>
                <mxCell id="164" value="realize" style="rounded=0;whiteSpace=wrap;html=1;" vertex="1" parent="156">
                    <mxGeometry x="14.457142857142859" y="33.73230774879296" width="28.914285714285718" height="5.782681328364508" as="geometry"/>
                </mxCell>
                <mxCell id="165" value="worker" style="rounded=0;whiteSpace=wrap;html=1;" vertex="1" parent="156">
                    <mxGeometry x="63.611428571428576" y="19.2756044278817" width="28.914285714285718" height="5.782681328364508" as="geometry"/>
                </mxCell>
                <mxCell id="166" style="edgeStyle=none;html=1;entryX=0;entryY=0.5;entryDx=0;entryDy=0;" edge="1" parent="156" source="158" target="165">
                    <mxGeometry relative="1" as="geometry"/>
                </mxCell>
                <mxCell id="167" style="edgeStyle=none;html=1;entryX=-0.017;entryY=0.96;entryDx=0;entryDy=0;entryPerimeter=0;" edge="1" parent="89" source="157" target="150">
                    <mxGeometry relative="1" as="geometry"/>
                </mxCell>
                <mxCell id="168" value="" style="rounded=0;whiteSpace=wrap;html=1;" vertex="1" parent="89">
                    <mxGeometry x="259.59999999999997" y="125.10785159620357" width="52.8" height="12.94219154443486" as="geometry"/>
                </mxCell>
                <mxCell id="169" style="edgeStyle=none;html=1;exitX=1;exitY=0.5;exitDx=0;exitDy=0;" edge="1" parent="89" source="157">
                    <mxGeometry relative="1" as="geometry">
                        <mxPoint x="250.79999999999995" y="216.78170836928382" as="targetPoint"/>
                    </mxGeometry>
                </mxCell>
            </root>
        </mxGraphModel>
    </diagram>
</mxfile>